<svg width="208" height="35" viewBox="0 0 208 35" fill="none" xmlns="http://www.w3.org/2000/svg">
<path d="M202.396 21.474C202.396 26.7764 201.977 29.2488 201.139 30.8967C200.241 32.6478 199.041 33.4724 196.525 33.4724C192.961 33.4724 190.6 30.8967 190.6 23.3271C190.6 19.8777 191.073 17.6117 191.965 15.8606C192.803 14.2128 194.272 12.9262 196.835 12.9262C199.193 12.9262 200.552 13.7482 201.395 15.3974C202.024 16.6852 202.391 18.7964 202.391 21.474H202.396ZM208 23.4303C208 20.443 206.847 17.8686 204.594 15.6542C203.593 14.6429 202.395 13.8394 201.072 13.2912C199.749 12.743 198.327 12.4614 196.891 12.4629C193.536 12.4629 190.444 13.8024 188.347 15.8619C186.513 17.6646 185.045 20.1874 185.045 23.3283C185.045 26.4692 186.303 28.6836 188.138 30.4863C190.077 32.3394 193.17 33.9357 196.469 33.9357C199.719 33.9357 202.548 32.5975 204.645 30.5367C206.638 28.632 208 26.2124 208 23.4316V23.4303ZM183.157 27.4436C183.209 27.1855 182.79 27.1855 182.738 27.3907C181.841 30.8413 180.273 32.644 178.597 32.644C177.391 32.644 176.395 32.0775 176.034 31.3059C175.72 30.7381 175.615 30.3264 175.615 27.1339C175.615 22.6536 175.72 16.2685 175.871 14.0025C176.29 13.9509 178.02 13.9006 182.161 13.9006C182.371 13.9006 182.476 13.436 182.268 13.436C181.218 13.436 178.02 13.3844 175.871 13.3341C175.924 11.583 175.924 7.97753 176.08 5.91926C176.08 5.66748 175.766 5.66748 175.714 5.91926C175.242 8.18524 173.564 11.2217 172.569 12.2527C171.782 13.0244 170.682 13.3341 167.378 13.4889C167.169 13.4889 167.122 13.9509 167.432 13.9509C168.008 13.9509 170.839 13.9509 171.149 14.0025C170.992 17.968 170.939 24.3027 170.939 27.4436C170.939 29.8632 171.359 30.9446 172.355 31.9227C173.35 32.9009 174.872 33.6222 177.178 33.6222C180.27 33.6222 182.315 31.5098 183.153 27.4436H183.157ZM165.174 26.8771C165.174 25.4344 164.701 24.3531 163.809 23.4265C162.656 22.3439 160.822 21.5722 157.624 20.8005C153.011 19.6159 151.387 18.8958 151.387 16.733C151.387 15.8053 151.701 15.0323 152.225 14.5187C153.012 13.7973 154.218 13.2825 155.843 13.2825C158.305 13.2825 159.984 14.1574 161.137 15.3407C161.975 16.1149 162.657 17.4015 163.339 19.3075C163.495 19.6159 163.809 19.5592 163.809 19.2042C163.696 16.9219 163.714 14.635 163.863 12.3547C163.863 12.1482 163.549 12.1482 163.495 12.3043C162.657 14.1574 162.447 14.5187 162.238 14.5187C161.714 14.5187 159.302 12.7663 155.999 12.7663C151.857 12.7663 148.345 15.5988 148.345 19.461C148.345 20.7476 148.765 21.8819 149.657 22.7064C150.758 23.7866 152.434 24.4563 155.737 25.3312C160.508 26.619 161.87 27.4952 161.87 29.2967C161.87 30.5833 161.399 31.5098 160.928 31.9743C160.193 32.746 158.934 33.1073 156.89 33.1073C154.532 33.1073 152.12 32.4388 150.758 31.151C149.657 30.018 148.817 28.1649 148.241 26.2086C148.188 26.0022 147.822 26.0538 147.822 26.3119C148.032 28.525 148.241 31.5111 148.345 33.8815C148.345 34.088 148.601 34.088 148.66 33.8815C149.289 32.6453 149.603 32.1292 149.918 32.1292C150.548 32.1292 152.481 33.6235 156.995 33.6235C159.197 33.6235 161.714 32.9034 163.286 31.3575C164.387 30.2761 165.174 28.8863 165.174 26.8784V26.8771ZM143.103 27.2384C141.584 31.1007 138.806 33.2118 135.241 33.2118C132.201 33.2118 130.785 32.1292 129.841 30.2245C129.107 28.7831 128.583 26.4138 128.583 22.6032C131.258 22.5012 135.293 22.4496 143.732 22.5012C143.942 22.4492 144.048 22.2944 144.048 22.0367C143.995 19.1526 142.789 16.8363 141.322 15.3949C140.354 14.4359 139.203 13.6739 137.934 13.1524C136.666 12.631 135.306 12.3603 133.931 12.3559C130.837 12.3559 128.216 13.8502 126.12 15.9601C124.39 17.6092 123.079 20.3372 123.079 23.0161C123.079 26.5171 124.285 28.7314 126.12 30.5329C128.452 32.7232 131.545 33.9592 134.772 33.9898C138.338 33.9898 142.06 31.9756 143.685 27.5028C143.736 27.2963 143.213 27.0899 143.107 27.2447L143.103 27.2384ZM133.776 12.8255C137.132 12.8255 138.6 15.4528 138.966 21.8894L128.585 21.9398C128.691 19.1086 129.006 16.6361 129.895 14.9379C130.421 13.8565 131.783 12.8255 133.775 12.8255H133.776ZM106.362 33.3679C110.031 33.3163 118.785 33.2659 120.148 33.2659C120.305 33.2659 120.305 32.8543 120.148 32.8543C116.112 32.8543 115.534 32.6478 115.376 32.493C115.273 32.3897 115.22 32.2878 115.22 30.587C115.168 26.1079 115.168 18.1241 115.116 14.0063C116.165 13.9547 120.148 13.9547 121.457 14.0063C121.616 14.0063 121.668 13.4398 121.457 13.4398C119.885 13.4398 117.371 13.3882 115.116 13.4398V9.01107C115.116 6.43666 115.43 3.96422 116.216 2.47244C116.741 1.38477 117.893 0.516141 119.991 0.516141C122.822 0.516141 124.027 2.06079 123.66 2.36795C123.45 2.57441 122.402 2.62603 121.62 3.39898C121.147 3.86225 120.938 4.42874 120.938 5.15008C120.938 6.48827 121.934 7.5193 123.454 7.5193C125.08 7.5193 126.017 6.33469 126.017 4.73843C126.019 2.1124 123.345 0 119.939 0C116.845 0 114.956 1.02976 113.176 2.78087C110.712 5.20044 110.241 8.69761 110.398 13.3882C109.663 13.3882 107.251 13.3882 106.256 13.3378C106.099 13.3378 106.099 13.9043 106.256 13.9043H110.398C110.555 16.4788 110.555 27.752 110.555 30.3302C110.555 32.0813 110.555 32.493 110.345 32.6994C110.135 32.8543 109.244 32.8543 106.362 32.9059C106.099 32.9059 106.152 33.3679 106.362 33.3679ZM105.575 33.3163C105.733 33.3163 105.733 32.8543 105.575 32.8543C102.588 32.8543 101.906 32.7498 101.748 32.5962C101.592 32.3897 101.486 31.4116 101.486 26.468C101.486 22.8638 101.434 17.3537 101.434 13.5947C101.434 13.2346 101.329 13.1314 101.015 13.1314C99.9669 13.1314 96.5593 13.2346 92.3647 13.2862C92.2084 13.2862 92.2084 13.7482 92.3647 13.7482C95.7724 13.8011 96.1402 13.8011 96.3504 13.9547C96.5593 14.1612 96.6643 14.676 96.6643 15.449C96.7694 18.1266 96.8732 23.8936 96.8732 25.8511C96.8732 27.2925 96.8732 28.4255 96.8207 30.2786C96.7694 31.8233 96.7169 32.3897 96.5644 32.5962C96.3555 32.8014 95.5673 32.8014 92.58 32.8543C92.3698 32.8543 92.4224 33.2659 92.58 33.2659C93.3656 33.2659 104.481 33.3163 105.58 33.3163H105.575ZM102.062 3.75902C102.062 2.37425 100.856 1.24126 99.4415 1.24126C98.3419 1.24126 97.6601 1.6013 97.0834 2.16779C96.5616 2.71139 96.2789 3.43506 96.2965 4.182C96.2965 5.46984 97.3974 6.8609 98.9712 6.8609C100.49 6.8609 102.062 5.36661 102.062 3.77035V3.75902ZM65.8402 33.3163C69.8233 33.2143 73.809 33.2659 77.6306 33.3679C77.8869 33.3679 77.8869 32.9562 77.6831 32.9562C75.0623 32.8543 74.7471 32.7045 74.642 32.5962C74.5369 32.4414 74.4844 31.9265 74.4331 29.8153C74.3805 28.1675 74.3267 24.3065 74.3267 22.4005C74.3267 20.5978 74.4331 20.0313 74.956 19.0015C76.1619 16.6323 78.3124 14.0579 80.5666 14.0579C82.7684 14.0579 83.554 15.7574 83.554 18.6415C83.554 19.6197 83.6065 30.0218 83.6065 30.6399C83.6065 31.8233 83.6065 32.493 83.4489 32.6994C83.2913 32.8543 82.8196 32.8543 81.037 32.9059C80.8806 32.9059 80.8806 33.3163 81.0895 33.3163C84.9688 33.3163 87.1129 33.3163 91.9418 33.4195C92.0981 33.4195 92.0981 33.0079 91.9418 33.0079C89.3723 32.9059 89.0057 32.8543 88.8481 32.7498C88.5918 32.4414 88.4816 31.4116 88.4816 26.5712C88.4816 24.3568 88.5328 21.6276 88.5328 19.8777C88.5328 14.9341 86.1748 12.41 82.2429 12.41C78.6789 12.41 76.4759 15.0361 74.4331 19.0015H74.3806C74.4331 17.6634 74.4844 15.3974 74.5369 13.7482C74.5369 13.3882 74.5369 13.2862 74.1704 13.2862C71.7585 13.3378 68.5084 13.3378 65.8402 13.3378C65.63 13.3378 65.63 13.7482 65.8402 13.7482C68.6712 13.8011 69.0441 13.8527 69.1941 14.0063C69.4042 14.2581 69.5632 15.3911 69.5632 17.1535V28.7919C69.5632 31.5199 69.4568 32.4993 69.3068 32.7057C69.1492 32.8606 68.6776 32.8606 65.8466 32.9122C65.6903 32.9122 65.6365 33.3226 65.8466 33.3226L65.8402 33.3163ZM55.671 22.4005C55.6185 25.4382 55.6185 25.7466 55.5659 27.3429C55.5134 29.0953 55.4609 29.3571 55.3032 29.7134C54.8842 30.4851 52.6299 32.5962 50.4333 32.5962C48.5481 32.5962 47.8125 31.2051 47.8125 28.316C47.8125 23.784 49.1748 22.9104 55.6762 22.3993L55.671 22.4005ZM51.7443 13.0835C53.154 13.0835 54.1037 13.4436 54.6804 14.0617C55.3622 14.6798 55.6236 15.6063 55.6762 17.151C55.6762 18.8505 55.7287 21.0649 55.6762 21.8378C49.4375 22.3011 46.2938 23.4857 44.4061 25.3388C43.304 26.4201 42.8849 27.5028 42.8849 28.5829C42.8849 31.6218 45.821 33.7317 49.0184 33.6814C51.588 33.6814 53.7372 32.2966 55.4147 30.3856C55.8338 32.3998 57.5626 33.7846 60.1321 33.7846C62.9631 33.7846 64.4831 31.7767 64.9547 28.8938C64.9547 28.6874 64.5881 28.6874 64.5356 28.7906C64.0102 31.4166 62.858 32.6529 61.7046 32.6529C60.7089 32.6529 60.3423 32.1367 60.3423 31.005C60.3423 27.5544 60.5 22.7152 60.5 20.1383C60.5 17.8723 60.0271 16.2257 58.6648 14.8875C57.255 13.5481 55.3084 12.6215 52.2685 12.6215C49.2286 12.6215 47.1833 13.8061 45.8735 15.0411C44.929 15.9676 44.5625 16.7419 44.5625 17.72C44.5625 19.3163 45.7684 20.3448 47.2896 20.3448C48.757 20.3448 49.963 19.2647 49.963 17.827C49.963 15.6126 47.6561 15.5107 47.6561 14.8926C47.6561 14.3764 49.3337 13.0898 51.7443 13.0898V13.0835ZM25.6863 33.0079C23.5884 32.9059 23.2219 32.8543 23.0655 32.7498C22.9592 32.6478 22.9079 32.3897 22.9079 31.6697C22.8554 28.6823 22.8554 23.5323 22.8554 21.4727C22.8554 20.0817 22.9592 19.4119 23.5372 18.2273C24.1651 16.9924 26.6821 14.0567 28.9889 14.0567C30.8754 14.0567 31.9237 15.1897 31.9237 18.5358V31.7238C31.9237 32.2399 31.9237 32.5484 31.8199 32.6516C31.7161 32.7548 31.2432 32.8052 29.0927 32.8581C28.9364 32.8581 28.9364 33.2181 29.0927 33.2181C32.5529 33.2181 36.2759 33.2181 40.2077 33.3201C40.4166 33.3201 40.3641 32.96 40.2077 32.96C37.4805 32.8052 37.0615 32.7536 36.9577 32.6C36.7988 32.4451 36.7988 32.1871 36.7988 31.2089C36.7988 30.2824 36.8513 21.4778 36.8513 20.1371C36.8513 17.8207 36.4322 15.7612 35.0699 14.4721C33.9165 13.3391 32.3428 12.6694 30.4038 12.6694C26.9436 12.6694 24.4278 15.6038 22.8028 18.4363C22.5401 14.9354 20.2871 12.6178 16.932 12.6178C13.4192 12.6178 10.5883 16.2219 9.11447 19.4661H9.0632C9.0632 19.3125 9.22083 14.0076 9.22083 13.6475C9.22083 13.4411 9.16829 13.2875 9.0632 13.2875C7.0127 13.2875 1.25209 13.1843 0.781753 13.1843C0.571576 13.1843 0.571576 13.5443 0.729209 13.5443C3.29233 13.6991 3.97925 13.7961 4.08306 13.956C4.23941 14.1121 4.34578 14.8372 4.34578 17.4065C4.34578 19.4661 4.29323 30.1212 4.29323 31.2542C4.29323 32.284 4.23941 32.5408 4.1356 32.639C4.03692 32.8014 3.71653 32.8568 0.157632 32.9562C-0.052544 32.9562 -0.052544 33.3163 0.157632 33.3163C3.09241 33.2659 8.96324 33.2143 12.0031 33.3163C12.162 33.3163 12.162 32.9562 12.0031 32.9562C10.2217 32.8543 9.43998 32.8014 9.27851 32.6478C9.11703 32.4942 9.11959 31.72 9.11959 30.3818V22.7606C9.11959 21.0611 9.27851 20.1333 9.95901 18.8467C10.7984 17.1472 13.1629 14.063 15.5159 14.063C16.5116 14.063 17.0371 14.423 17.4036 15.196C17.7701 15.8141 17.9278 16.5354 17.9278 19.1602V31.3713C17.9278 32.3495 17.9278 32.5559 17.8227 32.6591C17.7176 32.7624 17.3011 32.8014 15.1493 32.8568C14.993 32.8568 14.993 33.2168 15.1493 33.2168C18.243 33.1652 23.0655 33.2684 25.6863 33.3704C25.8427 33.3704 25.8427 33.0104 25.6863 33.0104" fill="black"/>
</svg>
