<svg fill="none" height="35" viewBox="0 0 208 35" width="208" xmlns="http://www.w3.org/2000/svg"><path d="m202.396 21.474c0 5.3024-.419 7.7748-1.257 9.4227-.898 1.7511-2.098 2.5757-4.614 2.5757-3.564 0-5.925-2.5757-5.925-10.1453 0-3.4494.473-5.7154 1.365-7.4665.838-1.6478 2.307-2.9344 4.87-2.9344 2.358 0 3.717.822 4.56 2.4712.629 1.2878.996 3.399.996 6.0766zm5.604 1.9563c0-2.9873-1.153-5.5617-3.406-7.7761-1.001-1.0113-2.199-1.8148-3.522-2.363s-2.745-.8298-4.181-.8283c-3.355 0-6.447 1.3395-8.544 3.399-1.834 1.8027-3.302 4.3255-3.302 7.4664s1.258 5.3553 3.093 7.158c1.939 1.8531 5.032 3.4494 8.331 3.4494 3.25 0 6.079-1.3382 8.176-3.399 1.993-1.9047 3.355-4.3243 3.355-7.1051zm-24.843 4.0133c.052-.2581-.367-.2581-.419-.0529-.897 3.4506-2.465 5.2533-4.141 5.2533-1.206 0-2.202-.5665-2.563-1.3381-.314-.5678-.419-.9795-.419-4.172 0-4.4803.105-10.8654.256-13.1314.419-.0516 2.149-.1019 6.29-.1019.21 0 .315-.4646.107-.4646-1.05 0-4.248-.0516-6.397-.1019.053-1.7511.053-5.35657.209-7.41484 0-.25178-.314-.25178-.366 0-.472 2.26598-2.15 5.30244-3.145 6.33344-.787.7717-1.887 1.0814-5.191 1.2362-.209 0-.256.462.054.462.576 0 3.407 0 3.717.0516-.157 3.9655-.21 10.3002-.21 13.4411 0 2.4196.42 3.501 1.416 4.4791.995.9782 2.517 1.6995 4.823 1.6995 3.092 0 5.137-2.1124 5.975-6.1786zm-17.983-.5665c0-1.4427-.473-2.524-1.365-3.4506-1.153-1.0826-2.987-1.8543-6.185-2.626-4.613-1.1846-6.237-1.9047-6.237-4.0675 0-.9277.314-1.7007.838-2.2143.787-.7214 1.993-1.2362 3.618-1.2362 2.462 0 4.141.8749 5.294 2.0582.838.7742 1.52 2.0608 2.202 3.9668.156.3084.47.2517.47-.1033-.113-2.2823-.095-4.5692.054-6.8495 0-.2065-.314-.2065-.368-.0504-.838 1.8531-1.048 2.2144-1.257 2.2144-.524 0-2.936-1.7524-6.239-1.7524-4.142 0-7.654 2.8325-7.654 6.6947 0 1.2866.42 2.4209 1.312 3.2454 1.101 1.0802 2.777 1.7499 6.08 2.6248 4.771 1.2878 6.133 2.164 6.133 3.9655 0 1.2866-.471 2.2131-.942 2.6776-.735.7717-1.994 1.133-4.038 1.133-2.358 0-4.77-.6685-6.132-1.9563-1.101-1.133-1.941-2.9861-2.517-4.9424-.053-.2064-.419-.1548-.419.1033.21 2.2131.419 5.1992.523 7.5696 0 .2065.256.2065.315 0 .629-1.2362.943-1.7523 1.258-1.7523.63 0 2.563 1.4943 7.077 1.4943 2.202 0 4.719-.7201 6.291-2.266 1.101-1.0814 1.888-2.4712 1.888-4.4791zm-22.071.3613c-1.519 3.8623-4.297 5.9734-7.862 5.9734-3.04 0-4.456-1.0826-5.4-2.9873-.734-1.4414-1.258-3.8107-1.258-7.6213 2.675-.102 6.71-.1536 15.149-.102.21-.052.316-.2068.316-.4645-.053-2.8841-1.259-5.2004-2.726-6.6418-.968-.959-2.119-1.721-3.388-2.2425-1.268-.5214-2.628-.7921-4.003-.7965-3.094 0-5.715 1.4943-7.811 3.6042-1.73 1.6491-3.041 4.3771-3.041 7.056 0 3.501 1.206 5.7153 3.041 7.5168 2.332 2.1903 5.425 3.4263 8.652 3.4569 3.566 0 7.288-2.0142 8.913-6.487.051-.2065-.472-.4129-.578-.2581zm-9.327-14.4129c3.356 0 4.824 2.6273 5.19 9.0639l-10.381.0504c.106-2.8312.421-5.3037 1.31-7.0019.526-1.0814 1.888-2.1124 3.88-2.1124zm-27.414 20.5424c3.669-.0516 12.423-.102 13.786-.102.157 0 .157-.4116 0-.4116-4.036 0-4.614-.2065-4.772-.3613-.103-.1033-.156-.2052-.156-1.906-.052-4.4791-.052-12.4629-.104-16.5807 1.049-.0516 5.032-.0516 6.341 0 .159 0 .211-.5665 0-.5665-1.572 0-4.086-.0516-6.341 0v-4.42873c0-2.57441.314-5.04685 1.1-6.53863.525-1.08767 1.677-1.956299 3.775-1.956299 2.831 0 4.036 1.544649 3.669 1.851809-.21.20646-1.258.25808-2.04 1.03103-.473.46327-.682 1.02976-.682 1.7511 0 1.33819.996 2.36922 2.516 2.36922 1.626 0 2.563-1.18461 2.563-2.78087.002-2.62603-2.672-4.73843-6.078-4.73843-3.094 0-4.983 1.02976-6.763 2.78087-2.464 2.41957-2.935 5.91674-2.778 10.60733-.735 0-3.147 0-4.142-.0504-.157 0-.157.5665 0 .5665h4.142c.157 2.5745.157 13.8477.157 16.4259 0 1.7511 0 2.1628-.21 2.3692-.21.1549-1.101.1549-3.983.2065-.263 0-.21.462 0 .462zm-.787-.0516c.158 0 .158-.462 0-.462-2.987 0-3.669-.1045-3.827-.2581-.156-.2065-.262-1.1846-.262-6.1282 0-3.6042-.052-9.1143-.052-12.8733 0-.3601-.105-.4633-.419-.4633-1.0481 0-4.4557.1032-8.6503.1548-.1563 0-.1563.462 0 .462 3.4077.0529 3.7755.0529 3.9857.2065.2089.2065.3139.7213.3139 1.4943.1051 2.6776.2089 8.4446.2089 10.4021 0 1.4414 0 2.5744-.0525 4.4275-.0513 1.5447-.1038 2.1111-.2563 2.3176-.2089.2052-.9971.2052-3.9844.2581-.2102 0-.1576.4116 0 .4116.7856 0 11.901.0504 13 .0504zm-3.513-29.55728c0-1.38477-1.206-2.51776-2.6205-2.51776-1.0996 0-1.7814.36004-2.3581.92653-.5218.5436-.8045 1.26727-.7869 2.01421 0 1.28784 1.1009 2.6789 2.6747 2.6789 1.5188 0 3.0908-1.49429 3.0908-3.09055zm-36.2218 29.55728c3.9831-.102 7.9688-.0504 11.7904.0516.2563 0 .2563-.4117.0525-.4117-2.6208-.1019-2.936-.2517-3.0411-.36-.1051-.1548-.1576-.6697-.2089-2.7809-.0526-1.6478-.1064-5.5088-.1064-7.4148 0-1.8027.1064-2.3692.6293-3.399 1.2059-2.3692 3.3564-4.9436 5.6106-4.9436 2.2018 0 2.9874 1.6995 2.9874 4.5836 0 .9782.0525 11.3803.0525 11.9984 0 1.1834 0 1.8531-.1576 2.0595-.1576.1549-.6293.1549-2.4119.2065-.1564 0-.1564.4104.0525.4104 3.8793 0 6.0234 0 10.8523.1032.1563 0 .1563-.4116 0-.4116-2.5695-.102-2.9361-.1536-3.0937-.2581-.2563-.3084-.3665-1.3382-.3665-6.1786 0-2.2144.0512-4.9436.0512-6.6935 0-4.9436-2.358-7.4677-6.2899-7.4677-3.564 0-5.767 2.6261-7.8098 6.5915h-.0525c.0525-1.3381.1038-3.6041.1563-5.2533 0-.36 0-.462-.3665-.462-2.4119.0516-5.662.0516-8.3302.0516-.2102 0-.2102.4104 0 .4104 2.831.0529 3.2039.1045 3.3539.2581.2101.2518.3691 1.3848.3691 3.1472v11.6384c0 2.728-.1064 3.7074-.2564 3.9138-.1576.1549-.6292.1549-3.4602.2065-.1563 0-.2101.4104 0 .4104zm-10.1692-10.9158c-.0525 3.0377-.0525 3.3461-.1051 4.9424-.0525 1.7524-.105 2.0142-.2627 2.3705-.419.7717-2.6733 2.8828-4.8699 2.8828-1.8852 0-2.6208-1.3911-2.6208-4.2802 0-4.532 1.3623-5.4056 7.8637-5.9167zm-3.9267-9.317c1.4097 0 2.3594.3601 2.9361.9782.6818.6181.9432 1.5446.9958 3.0893 0 1.6995.0525 3.9139 0 4.6868-6.2387.4633-9.3824 1.6479-11.2701 3.501-1.1021 1.0813-1.5212 2.164-1.5212 3.2441 0 3.0389 2.9361 5.1488 6.1335 5.0985 2.5696 0 4.7188-1.3848 6.3963-3.2958.4191 2.0142 2.1479 3.399 4.7174 3.399 2.831 0 4.351-2.0079 4.8226-4.8908 0-.2064-.3666-.2064-.4191-.1032-.5254 2.626-1.6776 3.8623-2.831 3.8623-.9957 0-1.3623-.5162-1.3623-1.6479 0-3.4506.1577-8.2898.1577-10.8667 0-2.266-.4729-3.9126-1.8352-5.2508-1.4098-1.3394-3.3564-2.266-6.3963-2.266s-5.0852 1.1846-6.395 2.4196c-.9445.9265-1.311 1.7008-1.311 2.6789 0 1.5963 1.2059 2.6248 2.7271 2.6248 1.4674 0 2.6734-1.0801 2.6734-2.5178 0-2.2144-2.3069-2.3163-2.3069-2.9344 0-.5162 1.6776-1.8028 4.0882-1.8028zm-26.058 19.9244c-2.0979-.102-2.4644-.1536-2.6208-.2581-.1063-.102-.1576-.3601-.1576-1.0801-.0525-2.9874-.0525-8.1374-.0525-10.197 0-1.391.1038-2.0608.6818-3.2454.6279-1.2349 3.1449-4.1706 5.4517-4.1706 1.8865 0 2.9348 1.133 2.9348 4.4791v13.188c0 .5161 0 .8246-.1038.9278s-.5767.1536-2.7272.2065c-.1563 0-.1563.36 0 .36 3.4602 0 7.1832 0 11.115.102.2089 0 .1564-.3601 0-.3601-2.7272-.1548-3.1462-.2064-3.25-.36-.1589-.1549-.1589-.4129-.1589-1.3911 0-.9265.0525-9.7311.0525-11.0718 0-2.3164-.4191-4.3759-1.7814-5.665-1.1534-1.133-2.7271-1.8027-4.6661-1.8027-3.4602 0-5.976 2.9344-7.601 5.7669-.2627-3.5009-2.5157-5.8185-5.8708-5.8185-3.5128 0-6.3437 3.6041-7.81753 6.8483h-.05127c0-.1536.15763-5.4585.15763-5.8186 0-.2064-.05254-.36-.15763-.36-2.0505 0-7.81111-.1032-8.281447-.1032-.210177 0-.210177.36-.052544.36 2.563121.1548 3.250041.2518 3.353851.4117.15635.1561.26272.8812.26272 3.4505 0 2.0596-.05255 12.7147-.05255 13.8477 0 1.0298-.05382 1.2866-.15763 1.3848-.09868.1624-.41907.2178-3.977968.3172-.210176 0-.210176.3601 0 .3601 2.934778-.0504 8.805608-.102 11.845468 0 .1589 0 .1589-.3601 0-.3601-1.7814-.1019-2.56312-.1548-2.72459-.3084-.16148-.1536-.15892-.9278-.15892-2.266v-7.6212c0-1.6995.15892-2.6273.83942-3.9139.83939-1.6995 3.20389-4.7837 5.55689-4.7837.9957 0 1.5212.36 1.8877 1.133.3665.6181.5242 1.3394.5242 3.9642v12.2111c0 .9782 0 1.1846-.1051 1.2878-.1051.1033-.5216.1423-2.6734.1977-.1563 0-.1563.36 0 .36 3.0937-.0516 7.9162.0516 10.537.1536.1564 0 .1564-.36 0-.36" fill="#fff"/></svg>